<?xml version="1.0" encoding="utf-8"?>
<!-- Generator: Adobe Illustrator 25.1.0, SVG Export Plug-In . SVG Version: 6.00 Build 0)  -->
<svg version="1.1" xmlns="http://www.w3.org/2000/svg" xmlns:xlink="http://www.w3.org/1999/xlink" x="0px" y="0px"
	 viewBox="0 0 376.16 401.07" style="enable-background:new 0 0 376.16 401.07;" xml:space="preserve">
<style type="text/css">
	.st0{fill:none;stroke:#68BEF2;stroke-width:5;stroke-miterlimit:10;}
	.st1{fill:#A885FF;}
	.st2{fill:none;stroke:#8852F0;stroke-width:5;stroke-miterlimit:10;}
	.st3{fill:#FFD006;}
	.st4{fill:none;stroke:#FFD006;stroke-width:5;stroke-miterlimit:10;}
	.st5{fill:#1B2964;}
	.st6{fill:#68BEF2;}
	.st7{fill:none;stroke:#1B2964;stroke-width:5;stroke-miterlimit:10;}
	.st8{opacity:0.41;}
	.st9{fill:#2A292A;}
	.st10{fill:#C5C5C5;}
	.st11{fill:url(#SVGID_1_);}
	.st12{fill:url(#SVGID_2_);}
	.st13{fill:none;stroke:#FFD006;stroke-width:9;stroke-miterlimit:10;}
	.st14{fill:none;stroke:#F4DB5A;stroke-width:9;stroke-miterlimit:10;}
	.st15{fill:none;stroke:#1B2964;stroke-width:7;stroke-miterlimit:10;}
	.st16{fill:url(#SVGID_3_);}
	.st17{fill:url(#SVGID_4_);}
	.st18{fill:#FFFFFF;}
	.st19{fill:url(#SVGID_5_);}
	.st20{fill:url(#SVGID_6_);}
	.st21{display:none;fill:none;stroke:#1B2964;stroke-width:9;stroke-miterlimit:10;}
	.st22{fill:url(#SVGID_7_);}
	.st23{fill:url(#SVGID_8_);}
	.st24{fill:url(#SVGID_9_);}
	.st25{fill:url(#SVGID_10_);}
	.st26{fill:url(#SVGID_11_);}
	.st27{fill:url(#SVGID_12_);}
	.st28{fill:url(#SVGID_13_);}
	.st29{fill:url(#SVGID_14_);}
	.st30{fill:url(#SVGID_15_);}
	.st31{fill:url(#SVGID_16_);}
	.st32{fill:url(#SVGID_17_);}
	.st33{fill:url(#SVGID_18_);}
	.st34{fill:url(#SVGID_19_);}
	.st35{fill:url(#SVGID_20_);}
	.st36{fill:url(#SVGID_21_);}
	.st37{fill:url(#SVGID_22_);}
	.st38{fill:url(#SVGID_23_);}
	.st39{fill:url(#SVGID_24_);}
	.st40{fill:url(#SVGID_25_);}
	.st41{fill:url(#SVGID_26_);}
	.st42{fill:url(#SVGID_27_);}
	.st43{fill:url(#SVGID_28_);}
	.st44{fill:url(#SVGID_29_);}
	.st45{fill:url(#SVGID_30_);}
	.st46{fill:url(#SVGID_31_);}
	.st47{fill:url(#SVGID_32_);}
	.st48{fill:url(#SVGID_33_);}
	.st49{fill:url(#SVGID_34_);}
	.st50{fill:url(#SVGID_35_);}
	.st51{fill:#8852F0;}
	.st52{fill:none;stroke:#1B2964;stroke-width:9;stroke-miterlimit:10;}
</style>
<g id="Calque_1">
</g>
<g id="Calque_2">
</g>
<g id="Calque_4">
	<g>
		<path class="st5" d="M102.38,275.48v32.68l10.06-9.99h9.58l-13.42,12.98l14.4,17.93h-9.26l-10.22-13.04l-1.14,1.14v11.9h-7.14
			v-53.59H102.38z"/>
		<path class="st5" d="M127.61,298.16h7.14v2.76c1.31-1.38,2.47-2.32,3.49-2.82c1.04-0.53,2.26-0.79,3.68-0.79
			c1.88,0,3.85,0.61,5.9,1.84l-3.27,6.54c-1.35-0.97-2.68-1.46-3.97-1.46c-3.89,0-5.84,2.94-5.84,8.82v16.02h-7.14V298.16z"/>
		<path class="st5" d="M164.51,323.32l-13.9-25.16h8.28l9.46,17.77l8.82-17.77h8.06l-24.62,47.72h-8.15L164.51,323.32z"/>
		<path class="st5" d="M197.22,345.88h-7.14v-47.72h7.14v3.36c2.81-2.81,6.01-4.22,9.58-4.22c4.25,0,7.75,1.57,10.5,4.7
			c2.79,3.11,4.19,7.03,4.19,11.77c0,4.63-1.39,8.49-4.16,11.58c-2.75,3.07-6.22,4.6-10.41,4.6c-3.62,0-6.85-1.45-9.71-4.35V345.88z
			 M214.19,313.81c0-2.96-0.8-5.37-2.41-7.23c-1.63-1.88-3.68-2.82-6.16-2.82c-2.62,0-4.75,0.91-6.38,2.73
			c-1.63,1.82-2.44,4.21-2.44,7.17c0,2.9,0.81,5.29,2.44,7.17c1.61,1.84,3.72,2.76,6.35,2.76c2.47,0,4.52-0.93,6.12-2.79
			C213.37,318.93,214.19,316.6,214.19,313.81z"/>
		<path class="st5" d="M236.98,304.83v24.24h-7.14v-24.24h-3.05v-6.66h3.05v-11.33h7.14v11.33h5.55v6.66H236.98z"/>
		<path class="st5" d="M246.37,313.39c0-4.46,1.6-8.26,4.79-11.39c3.19-3.13,7.09-4.7,11.68-4.7c4.61,0,8.52,1.58,11.74,4.73
			c3.17,3.15,4.76,7.02,4.76,11.61c0,4.63-1.6,8.51-4.79,11.64c-3.22,3.11-7.16,4.66-11.83,4.66c-4.63,0-8.51-1.59-11.64-4.76
			C247.93,322.07,246.37,318.13,246.37,313.39z M253.66,313.52c0,3.09,0.83,5.53,2.47,7.33c1.69,1.82,3.92,2.73,6.69,2.73
			c2.79,0,5.02-0.9,6.69-2.7c1.67-1.8,2.51-4.2,2.51-7.2c0-3-0.84-5.4-2.51-7.2c-1.69-1.82-3.92-2.73-6.69-2.73
			c-2.73,0-4.94,0.91-6.63,2.73C254.51,308.3,253.66,310.64,253.66,313.52z"/>
	</g>
	<g>
		<rect x="98.99" y="68.87" class="st5" width="27.63" height="176.4"/>
		<path class="st5" d="M157.38,68.87v176.4h62.03l-43.72-46.86c-9.7-10.39-9.13-26.68,1.26-36.38l0.01,0.01l40.19-37.5
			c0.01-0.01,0.02-0.03,0.03-0.04l19.52-18.13c0.64-0.59,1.63-0.56,2.23,0.08l15.42,16.59c0.59,0.64,0.56,1.63-0.08,2.23
			l-19.52,18.13c-0.07,0.06-0.15,0.09-0.22,0.13l-40,37.32l60.09,64.41h20.77V68.87H157.38z"/>
	</g>
</g>
<g id="Calque_3">
</g>
</svg>
