<?xml version="1.0" encoding="utf-8"?>
<!-- Generator: Adobe Illustrator 25.1.0, SVG Export Plug-In . SVG Version: 6.00 Build 0)  -->
<svg version="1.1" xmlns="http://www.w3.org/2000/svg" xmlns:xlink="http://www.w3.org/1999/xlink" x="0px" y="0px"
	 viewBox="0 0 550.73 373.74" style="enable-background:new 0 0 550.73 373.74;" xml:space="preserve">
<style type="text/css">
	.st0{fill:none;stroke:#68BEF2;stroke-width:5;stroke-miterlimit:10;}
	.st1{fill:#A885FF;}
	.st2{fill:none;stroke:#8852F0;stroke-width:5;stroke-miterlimit:10;}
	.st3{fill:#FFD006;}
	.st4{fill:none;stroke:#FFD006;stroke-width:5;stroke-miterlimit:10;}
	.st5{fill:#1B2964;}
	.st6{fill:#68BEF2;}
	.st7{fill:none;stroke:#1B2964;stroke-width:5;stroke-miterlimit:10;}
	.st8{opacity:0.41;}
	.st9{fill:#2A292A;}
	.st10{fill:#C5C5C5;}
	.st11{fill:url(#SVGID_1_);}
	.st12{fill:url(#SVGID_2_);}
	.st13{fill:none;stroke:#FFD006;stroke-width:9;stroke-miterlimit:10;}
	.st14{fill:none;stroke:#F4DB5A;stroke-width:9;stroke-miterlimit:10;}
	.st15{fill:none;stroke:#1B2964;stroke-width:7;stroke-miterlimit:10;}
	.st16{fill:url(#SVGID_3_);}
	.st17{fill:url(#SVGID_4_);}
	.st18{fill:#FFFFFF;}
	.st19{fill:url(#SVGID_5_);}
	.st20{fill:url(#SVGID_6_);}
	.st21{display:none;fill:none;stroke:#1B2964;stroke-width:9;stroke-miterlimit:10;}
	.st22{fill:url(#SVGID_7_);}
	.st23{fill:url(#SVGID_8_);}
	.st24{fill:url(#SVGID_9_);}
	.st25{fill:url(#SVGID_10_);}
	.st26{fill:url(#SVGID_11_);}
	.st27{fill:url(#SVGID_12_);}
	.st28{fill:url(#SVGID_13_);}
	.st29{fill:url(#SVGID_14_);}
	.st30{fill:url(#SVGID_15_);}
	.st31{fill:url(#SVGID_16_);}
	.st32{fill:url(#SVGID_17_);}
	.st33{fill:url(#SVGID_18_);}
	.st34{fill:url(#SVGID_19_);}
	.st35{fill:url(#SVGID_20_);}
	.st36{fill:url(#SVGID_21_);}
	.st37{fill:url(#SVGID_22_);}
	.st38{fill:url(#SVGID_23_);}
	.st39{fill:url(#SVGID_24_);}
	.st40{fill:url(#SVGID_25_);}
	.st41{fill:url(#SVGID_26_);}
	.st42{fill:url(#SVGID_27_);}
	.st43{fill:url(#SVGID_28_);}
	.st44{fill:url(#SVGID_29_);}
	.st45{fill:url(#SVGID_30_);}
	.st46{fill:url(#SVGID_31_);}
	.st47{fill:url(#SVGID_32_);}
	.st48{fill:url(#SVGID_33_);}
	.st49{fill:url(#SVGID_34_);}
	.st50{fill:url(#SVGID_35_);}
	.st51{fill:#8852F0;}
	.st52{fill:none;stroke:#1B2964;stroke-width:9;stroke-miterlimit:10;}
</style>
<g id="Calque_1">
</g>
<g id="Calque_2">
</g>
<g id="Calque_4">
	<g>
		<path class="st18" d="M227.28,174.98v58.86l18.12-18h17.26l-24.17,23.37l25.94,32.29h-16.69l-18.4-23.49l-2.06,2.06v21.43h-12.86
			v-96.52H227.28z"/>
		<path class="st18" d="M272.71,215.84h12.86v4.97c2.36-2.48,4.46-4.17,6.29-5.09c1.87-0.95,4.08-1.43,6.63-1.43
			c3.39,0,6.93,1.11,10.63,3.31l-5.89,11.77c-2.44-1.75-4.82-2.63-7.14-2.63c-7.01,0-10.51,5.3-10.51,15.89v28.86h-12.86V215.84z"/>
		<path class="st18" d="M339.17,261.16l-25.03-45.32h14.91l17.03,32l15.89-32h14.52l-44.35,85.95h-14.69L339.17,261.16z"/>
		<path class="st18" d="M398.09,301.79h-12.86v-85.95h12.86v6.06c5.07-5.07,10.82-7.6,17.26-7.6c7.66,0,13.96,2.82,18.92,8.46
			c5.03,5.6,7.54,12.67,7.54,21.2c0,8.34-2.5,15.3-7.49,20.86c-4.95,5.52-11.2,8.29-18.74,8.29c-6.52,0-12.34-2.61-17.49-7.83
			V301.79z M428.66,244.01c0-5.33-1.45-9.68-4.34-13.03c-2.93-3.39-6.63-5.09-11.09-5.09c-4.72,0-8.55,1.64-11.49,4.91
			c-2.93,3.28-4.4,7.58-4.4,12.92c0,5.22,1.47,9.52,4.4,12.91c2.9,3.31,6.7,4.97,11.43,4.97c4.46,0,8.13-1.68,11.03-5.03
			C427.18,253.23,428.66,249.04,428.66,244.01z"/>
		<path class="st18" d="M469.69,227.84v43.66h-12.86v-43.66h-5.49v-12h5.49v-20.4h12.86v20.4h10v12H469.69z"/>
		<path class="st18" d="M486.61,243.27c0-8.04,2.88-14.88,8.63-20.51c5.75-5.64,12.76-8.46,21.03-8.46c8.3,0,15.35,2.84,21.14,8.51
			c5.71,5.68,8.57,12.65,8.57,20.92c0,8.34-2.88,15.33-8.63,20.97c-5.79,5.6-12.9,8.4-21.31,8.4c-8.34,0-15.34-2.86-20.97-8.57
			C489.43,258.89,486.61,251.8,486.61,243.27z M499.75,243.5c0,5.56,1.49,9.96,4.46,13.2c3.05,3.28,7.07,4.91,12.06,4.91
			c5.03,0,9.05-1.62,12.06-4.86c3.01-3.24,4.51-7.56,4.51-12.97c0-5.41-1.51-9.73-4.51-12.97c-3.05-3.28-7.07-4.91-12.06-4.91
			c-4.91,0-8.9,1.64-11.94,4.91C501.28,234.09,499.75,238.32,499.75,243.5z"/>
	</g>
	<g>
		<rect x="52.39" y="148.48" class="st18" width="19.24" height="122.88"/>
		<path class="st18" d="M93.07,148.48v122.88h43.21l-30.46-32.64c-6.76-7.24-6.36-18.59,0.88-25.34l0.01,0.01l28-26.12
			c0.01-0.01,0.01-0.02,0.02-0.03l13.6-12.63c0.44-0.41,1.14-0.39,1.55,0.06l10.74,11.56c0.41,0.44,0.39,1.14-0.06,1.55l-13.6,12.63
			c-0.05,0.04-0.1,0.06-0.15,0.09l-27.86,26l41.86,44.87h14.47V148.48H93.07z"/>
	</g>
</g>
<g id="Calque_3">
</g>
</svg>
